<?xml version="1.0" encoding="utf-8"?>
<!-- Generator: Adobe Illustrator 23.0.1, SVG Export Plug-In . SVG Version: 6.00 Build 0)  -->
<svg version="1.1" id="Layer_1" xmlns="http://www.w3.org/2000/svg" xmlns:xlink="http://www.w3.org/1999/xlink" x="0px" y="0px"
	 viewBox="0 0 936 946" style="enable-background:new 0 0 936 946;" xml:space="preserve">
<style type="text/css">
	.st0{clip-path:url(#SVGID_2_);}
	.st1{clip-path:url(#SVGID_4_);fill-rule:evenodd;clip-rule:evenodd;fill:#FFFFFF;}
</style>
<title>ASAsset 1</title>
<g>
	<g>
		<defs>
			<rect id="SVGID_1_" x="120.7" y="78.6" width="693.6" height="693.3"/>
		</defs>
		<clipPath id="SVGID_2_">
			<use xlink:href="#SVGID_1_"  style="overflow:visible;"/>
		</clipPath>
		<g class="st0">
			<defs>
				<rect id="SVGID_3_" x="120.7" y="78.6" width="693.6" height="693.3"/>
			</defs>
			<clipPath id="SVGID_4_">
				<use xlink:href="#SVGID_3_"  style="overflow:visible;"/>
			</clipPath>
			<path class="st1" d="M683.5,420c40.5-13.3,80.9-26.6,121.4-39.8c-6-15.7-93.8,9.2-109,13.6c-72.3,20.9-138.4,46.6-202.9,74.2
				c-31.2,15.4-62.5,29.7-93,46.6c-11.7-12.1-44.8-26.4-39.9-52.1c10.5-54.4,205.9-176.3,281.3-175c0.3,0.1,0.6,0.3,0.9,0.4
				c-6.3,31.7-64.4,84.6-95.2,114.4c0.7,1.1,1.5,2.3,2.2,3.4c30,5.7,113.4-68.8,120.5-90.3c9.9-29.8-8-59.7-15.9-76.3
				c35.1-23.8,90.4-86.8,34.6-128.8c-10-7.5-25.6-17-41.2-18.2c34.5,18.7,55.6,44.2,42.5,73.3c-21.5,47.8-100.5,49.8-157.2,66.1
				c-75.2,21.6-134,55.9-186.5,98.7c-25.6,20.9-68.8,66.8-49.2,114c17,40.9,69,70.5,76.6,83.1c-55.8,21.2-227.2,123.4-242.3,170.4
				c-5.3,16.4,10.7,40.3,20.4,47.9c29.5,23.4,97.2,0.9,127.1-8.5c87.4-27.5,258.8-103.7,133.8-206v-0.4
				C492.2,483,589.2,453.2,683.5,420 M159.8,690.4c44.1-38.7,94.8-72.2,146.6-103.4c22.1-12.7,46.1-26.3,68.2-39
				C374.5,594.4,202.2,682.5,159.8,690.4"/>
		</g>
	</g>
</g>
</svg>
